<svg width="89" height="66" viewBox="0 0 89 66" fill="none" xmlns="http://www.w3.org/2000/svg">
<g clip-path="url(#clip0_2576_14250)">
<path d="M56.7844 32.7324L56.8797 32.8673C56.8559 32.9646 56.7765 33.0908 56.8201 33.1557C57.2729 33.8213 57.7476 34.4767 58.2103 35.1354C58.7922 35.9529 59.388 36.7636 59.9381 37.5964C60.0155 37.7142 59.8983 38.0811 59.8229 38.0931C59.1179 38.1938 58.391 38.3474 57.694 38.2859C56.3038 38.1596 54.9136 37.9446 53.5235 38.2433C52.7867 38.4003 52.0757 38.9259 51.2754 38.3849C51.2615 38.3747 51.2297 38.3849 51.2079 38.3849L48.3342 38.3661C47.7226 38.3661 47.3016 38.163 47.1943 37.5913C47.1465 37.4184 47.058 37.2558 46.9342 37.1134C46.1652 36.0946 45.0463 35.3067 43.7328 34.8589C41.9455 34.2309 40.1085 34.0176 38.2238 34.3623C36.3392 34.7071 34.5558 35.1969 33.0604 36.2943C32.9544 36.3495 32.8346 36.3822 32.7109 36.3896C32.5873 36.397 32.4634 36.379 32.3495 36.3369C31.9016 36.0966 31.4706 35.8339 31.0586 35.5501C31.4041 34.9545 31.6762 34.3452 32.0813 33.8128C33.1041 32.4628 34.1765 31.1401 35.2588 29.8209C36.41 28.453 37.773 27.2265 39.3102 26.1754C40.7658 25.1514 42.5155 24.8101 44.3147 24.6292C44.8946 24.5746 45.5063 24.7811 46.1021 24.8477C47.3588 25.0055 48.5388 25.4631 49.5079 26.1686C50.4612 26.8257 51.4581 27.452 52.2882 28.2081C53.2296 29.0614 54.01 30.041 54.858 30.966C55.3883 31.5429 55.9126 32.1249 56.4468 32.6932C56.5044 32.7444 56.6712 32.7205 56.7844 32.7324Z" fill="white"/>
<path d="M58.5535 44.2552L58.2318 44.5658C57.5923 44.8338 57.0402 45.1666 56.8416 45.8032L56.7105 45.9141L56.3134 46.3749L56.7225 46.5063C56.7423 46.5626 56.7503 46.6633 56.782 46.6684C57.4076 46.7811 58.0332 46.8869 58.6627 46.9705C58.7044 46.9705 58.7779 46.7998 58.8375 46.6992L59.1552 46.7077C59.3295 46.6441 59.4921 46.559 59.6378 46.4551C60.4779 45.641 61.31 44.8218 62.1222 43.9856C62.3146 43.7542 62.4827 43.5086 62.6247 43.2517C62.321 43.1836 62.0104 43.1407 61.6972 43.1237C61.0637 43.139 60.7678 42.9155 60.8135 42.3659C60.8274 42.2055 60.8135 42.0417 60.8135 41.8795C60.8135 41.458 61.026 41.2549 61.5503 41.2788C62.8411 41.3351 64.132 41.3539 65.4228 41.4221C65.5936 41.4307 65.9014 41.6525 65.8875 41.7464C65.8199 42.1742 65.7021 42.595 65.536 43.0025C65.4073 43.2555 65.2518 43.4977 65.0713 43.7261C64.3167 44.4088 63.56 45.0795 62.8113 45.7622C62.7796 45.7912 62.8113 45.8765 62.8232 45.9329L62.5393 46.1223C62.714 46.2352 62.9075 46.325 63.1132 46.3885C63.842 46.5097 64.5748 46.6155 65.3136 46.677C65.4884 46.6906 65.8419 46.52 65.8478 46.4227C65.858 45.929 65.8395 45.4351 65.7922 44.943L65.9372 44.3337C65.9809 44.3201 66.0504 44.3201 66.0663 44.2945C66.6144 43.3899 67.1572 42.4837 67.6947 41.5757C67.7067 41.5553 67.657 41.5075 67.6352 41.4716C67.6412 41.4621 67.6497 41.4539 67.66 41.4477C67.6704 41.4415 67.6823 41.4374 67.6947 41.4358L67.7861 41.359V41.3368C67.937 41.3163 68.1356 41.3368 68.2349 41.2685C69.2021 40.5466 70.2209 40.5859 71.2893 41.0689C71.4011 41.1198 71.5242 41.1499 71.6504 41.1572C71.7767 41.1646 71.9033 41.149 72.0221 41.1115C72.3994 40.9204 72.737 40.9221 72.9356 41.2122C73.0804 41.454 73.1225 41.7317 73.0548 41.9973C72.8562 42.7585 72.5543 43.5009 72.3478 44.262C72.2272 44.7097 72.1679 45.1679 72.171 45.6274C72.171 45.7861 72.4272 45.9892 72.6218 46.0762C72.7092 46.1155 73.019 45.9499 73.0905 45.8202C73.589 44.9669 74.0835 44.0999 74.5125 43.2124C74.705 42.8021 74.8002 42.3629 74.7925 41.9205C74.7746 41.2532 74.6257 40.5876 74.5303 39.922L74.6733 39.7633C74.6659 39.7507 74.6642 39.7362 74.6686 39.7226C74.673 39.709 74.6832 39.6973 74.6972 39.6899C74.7945 39.5516 74.8957 39.4134 74.9851 39.2752C74.9865 39.2577 74.995 39.2413 75.0092 39.2287C75.0234 39.2162 75.0423 39.2085 75.0626 39.2069C75.1888 39.2162 75.3157 39.2162 75.4419 39.2069C75.7755 39.1642 76.274 38.9714 76.4051 39.0874C76.6623 39.3483 76.7962 39.6827 76.7804 40.0244C76.7387 40.6644 76.7645 40.7941 77.5748 40.7617C78.3314 40.7327 78.5677 41.0808 78.667 41.615C78.7028 41.7857 78.7544 41.9563 78.7981 42.127C78.6631 42.5212 78.526 42.9155 78.391 43.3097L78.5459 43.3643C78.7643 43.0691 78.9828 42.7755 79.1993 42.4803L79.3125 42.325V42.313C79.4197 42.1611 79.5269 42.0092 79.6322 41.8556V41.8471L80.8794 41.0655C80.9548 41.4495 81.068 41.7379 81.0561 42.0212C81.0303 42.6697 80.3293 42.8557 79.8646 43.2039C79.3998 43.5521 78.9888 43.8763 78.5519 44.2125C78.2778 44.4327 77.827 44.6204 77.7575 44.8798C77.5694 45.6597 77.4545 46.4513 77.4139 47.247C77.3782 47.759 77.1796 47.986 76.5719 47.9826C75.5531 47.974 74.9454 47.5269 75.007 46.6497C75.0718 46.051 75.2184 45.461 75.4439 44.8918C75.6762 44.2416 76.0396 43.622 76.2541 42.9684C76.3137 42.7977 76.0833 42.5264 75.9284 42.3369C75.9006 42.3028 75.5928 42.4359 75.4161 42.4922H75.4061C75.3168 42.5451 75.1877 42.5827 75.148 42.6629C74.3536 44.1682 73.5638 45.6763 72.7787 47.1873C72.747 47.2487 72.7887 47.3409 72.7946 47.4177L72.7827 47.4313C72.6481 47.4326 72.5143 47.4505 72.3855 47.4842C71.3628 47.8733 70.5982 47.5081 70.4413 46.5609C70.4093 46.3612 70.3465 46.1661 70.2546 45.9806C70.203 45.88 70.056 45.7383 69.9686 45.7485C69.8943 45.7642 69.8244 45.7927 69.7633 45.8323C69.7022 45.8719 69.6511 45.9218 69.6132 45.9789C69.3768 46.3527 69.1921 46.7503 68.9598 47.1258C68.4137 48.015 67.8119 48.1652 66.8706 47.5832C66.3443 47.2572 66.0762 47.2419 65.6453 47.7436C64.6523 48.9093 63.8043 48.9827 62.4479 48.131C62.2504 47.9872 62.0072 47.8976 61.7498 47.8738C61.4924 47.8501 61.2326 47.8933 61.0041 47.9979C60.6804 48.1276 60.1899 48.2744 59.9436 48.1549C59.4293 47.9058 59.1969 48.0952 58.8653 48.3631C57.8723 49.1653 57.1097 49.2165 56.2518 48.4809C55.7474 48.0508 55.2767 48.0457 54.663 48.2249C54.2659 48.3393 53.6999 48.4399 53.4099 48.2795C52.834 47.9604 52.5778 48.1089 52.1985 48.486C51.4994 49.1841 50.5998 49.138 50.0974 48.3956C49.9147 48.1259 49.8988 47.7795 49.7538 47.4825C49.6764 47.3118 49.5354 47.0866 49.3805 47.0593C49.2255 47.0319 48.9833 47.2094 48.874 47.3511C48.6219 47.6682 48.4007 48.0027 48.2127 48.3512C47.9248 48.882 47.4183 49.1465 46.7928 49.0492C46.1672 48.9519 45.6965 48.5714 45.4999 47.9757C44.8783 46.0796 46.2367 43.2517 48.175 42.1065C48.9296 41.6628 50.0676 41.6372 50.7706 42.1065C51.0983 42.3267 51.3326 42.3335 51.7179 42.2345C51.8803 42.212 52.0462 42.2175 52.2061 42.2506C52.366 42.2837 52.5167 42.3438 52.6493 42.4274C52.7923 42.5127 52.8221 42.854 52.7645 43.052C52.6175 43.564 52.3673 44.0436 52.2104 44.5505C51.98 45.3509 51.7934 46.1598 51.6265 46.9705C51.5968 47.1139 51.7338 47.3938 51.849 47.4194C51.9543 47.4324 52.0616 47.4262 52.1639 47.4012C52.2662 47.3762 52.3612 47.333 52.4428 47.2743C52.9829 46.7981 53.4913 46.293 53.9898 45.7827C54.2937 45.4704 54.5598 45.1273 54.8418 44.7996C55.2012 44.5556 55.5805 44.3286 55.9162 44.0624C56.0499 43.9186 56.1583 43.7587 56.2379 43.5879C56.0194 43.5077 55.805 43.4172 55.5845 43.3507C55.2727 43.2517 54.8318 43.2483 54.663 43.0605C54.2003 42.5485 54.4366 41.929 54.806 41.4836C54.9689 41.289 55.6004 41.3129 56.0135 41.3573C56.8932 41.4512 57.7551 41.6713 58.6349 41.7447C59.5147 41.8181 59.7331 41.999 59.4988 42.7226C59.4134 42.9872 59.193 43.2176 59.0381 43.4633C58.8832 43.7091 58.7143 43.9941 58.5535 44.2552ZM50.7229 42.9121C49.9286 42.8131 49.6664 42.8916 49.1541 43.5179C48.3339 44.5197 47.8334 45.6137 47.9625 46.8493L48.2366 46.9517L50.7229 42.9121ZM71.051 41.7925C70.346 41.5775 70.0024 41.9188 69.6727 42.2618C68.787 43.1885 68.3243 44.8423 68.8208 45.8151L71.051 41.7925Z" fill="#E3E3E3"/>
<path d="M30.9491 26.8885C30.9876 28.1315 30.682 29.3645 30.0574 30.4861C28.5819 33.0461 25.6069 33.8312 22.7452 32.3891C20.0384 31.0237 18.5747 28.8699 17.8777 26.3116C17.4249 24.6476 17.4408 22.97 18.1855 21.3504C19.6293 18.222 23.4264 17.2714 26.582 19.287C29.5311 21.1712 30.8617 23.7772 30.9491 26.8885Z" fill="white"/>
<path d="M58.4297 26.3406C58.5965 22.9272 59.7603 20.3587 62.5882 18.5036C66.004 16.2627 69.8925 17.3277 71.2588 20.8315C72.649 24.383 70.8219 29.1497 67.2731 31.2626C63.9724 33.2304 60.227 32.1057 58.9758 28.7248C58.6442 27.8288 58.5469 26.8679 58.4297 26.3406Z" fill="white"/>
<path d="M45.3677 51.8454C45.8801 51.9103 46.4004 52.0639 46.8989 52.0161C47.7052 51.9444 48.4876 51.6389 49.2939 51.627C50.1002 51.615 50.9144 51.9871 51.7009 51.9308C52.4873 51.8744 53.236 51.5007 54.1098 51.2327C56.4036 52.3574 58.5861 52.2772 60.4648 50.9136L62.1727 51.4973C61.992 51.7396 61.843 51.9785 61.6524 52.1885C59.865 54.1528 57.5336 55.5199 54.8843 56.4671C49.2977 58.5063 43.0823 58.8976 37.2095 57.5798C34.9018 57.0798 32.6756 56.3339 30.7572 55.0539C30.5586 54.8423 30.3838 54.6187 30.1733 54.4208C29.4902 53.7859 28.7832 53.1766 28.1258 52.5213C28.0007 52.3967 27.9987 51.9905 28.1258 51.912C28.7018 51.5297 29.3373 51.214 30.1952 50.7412C30.3084 50.8863 30.4871 51.1457 30.6936 51.3863C31.8078 52.6766 33.3965 53.2961 35.16 53.5589C36.7865 53.7996 38.4368 53.8132 40.0335 53.3319C40.8279 53.093 41.654 52.9001 42.4027 52.5776C43.3262 52.1816 44.1722 51.6389 45.2942 51.9256C45.2942 51.9342 45.3379 51.883 45.3677 51.8454Z" fill="white"/>
<path d="M47.3836 20.9818L47.0142 20.48C47.05 20.3964 47.1413 20.2957 47.1116 20.2325C46.913 19.7991 46.6528 19.3792 46.4939 18.944C45.9458 17.408 45.9597 15.843 46.206 14.2678C46.4999 12.37 47.6696 10.8391 49.1591 9.52665C49.9758 8.78781 51.0661 8.31601 52.2432 8.19204C53.3203 8.11035 54.4002 8.32042 55.3313 8.79278C56.1912 9.19726 56.8228 9.83897 57.3034 10.6257C58.0381 11.808 58.4554 13.1166 58.5247 14.4555C58.5702 15.6678 58.3471 16.8765 57.8674 18.0173C57.2954 19.4441 56.4594 20.6882 55.0871 21.6491C53.7843 22.5638 52.3385 23.0144 50.6366 22.6936C50.5373 22.6748 50.4042 22.7755 50.2871 22.8216H50.2176L50.1679 22.7806C49.5125 22.3352 48.8631 21.8846 48.2018 21.446C47.9456 21.2804 47.6597 21.1388 47.3836 20.9818Z" fill="white"/>
<path d="M38.5506 22.7707L38.4195 22.7997C38.068 22.7767 37.7152 22.7716 37.363 22.7843C35.4366 22.943 33.9869 22.1016 32.7953 20.9923C31.6038 19.883 30.6227 18.5637 30.3308 16.9868C30.1223 15.8518 29.9793 14.7306 30.162 13.5735C30.446 11.7798 31.155 10.2079 32.8132 9.03714C33.5897 8.46369 34.5954 8.17236 35.6174 8.22477C36.4693 8.27768 37.3094 8.50296 38.1554 8.65144C38.1898 8.63966 38.2282 8.63966 38.2626 8.65144C38.6598 9.01154 39.0689 9.35288 39.4264 9.73517C40.0385 10.3549 40.605 11.007 41.1224 11.6876C41.6175 12.4077 41.9913 13.1846 42.2325 13.995C42.6852 15.4433 42.6756 16.9696 42.2047 18.4135C41.9028 19.3915 41.6089 20.4035 40.6716 21.1544C40.324 21.4326 40.1056 21.8269 39.8275 22.1682L38.5506 22.7707Z" fill="white"/>
<path d="M33.4535 48.5769L33.9003 48.768C34.1307 48.9097 34.3531 49.1588 34.5934 49.1725C35.7691 49.2373 36.9368 49.2203 38.0569 48.797C39.8045 48.1365 41.2105 47.2098 41.7368 45.539C41.8897 45.0526 41.8262 44.6174 41.3714 44.2607C40.577 43.6344 38.5374 44.0064 38.182 44.8768C37.8851 45.6186 37.6345 46.3734 37.4313 47.1381C37.2327 47.8993 36.9149 48.1792 36.0213 48.2219C35.6916 48.2389 35.36 48.2219 35.0283 48.2219L34.8734 48.0922C35.0058 47.4095 35.1435 46.7234 35.2865 46.0339C35.416 45.9353 35.5272 45.8202 35.6161 45.6926C36.3589 44.1429 37.0639 42.5814 37.8364 41.0419C38.0328 40.7019 38.3284 40.4114 38.6943 40.1988C39.2107 39.8831 39.7171 40.1272 39.6615 40.6801C39.6158 41.1239 39.3298 41.5437 39.2266 41.9874C39.1829 42.1735 39.3318 42.3936 39.3954 42.5967L39.9514 42.2212L40.0686 42.1257L40.2295 41.9857H40.2175C40.331 41.9762 40.4418 41.9502 40.5452 41.9089C41.1827 41.5181 41.7249 40.134 41.5005 39.4838C41.4724 39.4074 41.4279 39.3362 41.3694 39.2738C40.7974 38.6594 38.885 38.8455 38.4024 39.5606C38.3926 39.5731 38.3787 39.5828 38.3624 39.5886C38.3462 39.5944 38.3283 39.5959 38.3111 39.593C38.0668 39.6476 37.753 39.6374 37.5902 39.7636C36.5178 40.617 35.3798 41.4294 35.1355 42.7827C35.0853 43.022 34.9901 43.2525 34.8535 43.4654C34.5914 43.8938 34.1168 43.9655 33.7672 43.6071C33.3144 43.1445 33.0682 42.6121 33.237 41.9823C33.6997 40.2637 35.0621 39.1254 36.7124 38.2703C37.9496 37.6269 39.4033 37.446 40.865 37.4989C41.9493 37.5382 42.9661 37.8402 43.5559 38.627C44.5489 39.9582 43.9531 41.216 42.6881 42.1052C41.9334 42.636 41.9374 42.7401 42.7814 43.1172C43.7744 43.5593 44.4178 44.1703 44.386 45.2608C44.3443 46.7422 43.5917 47.8328 42.3107 48.7424C42.0688 48.9507 41.8519 49.1794 41.6633 49.4251L41.6117 49.4404H41.5581C41.3292 49.4675 41.1047 49.5167 40.8888 49.5872C39.5048 50.2085 37.9489 50.4913 36.3906 50.4047C35.2746 50.3415 34.2975 50.0361 33.5011 49.3175C33.1893 49.0513 33.1575 48.8448 33.4535 48.5769Z" fill="#E3E3E3"/>
<path d="M56.7838 32.7318C56.6706 32.7199 56.5038 32.7438 56.4501 32.6892C55.908 32.1209 55.3837 31.5389 54.8614 30.962C54.0134 30.037 53.2329 29.0557 52.2916 28.2041C51.4575 27.448 50.4606 26.8217 49.5113 26.1646C48.5372 25.4565 47.3506 24.9987 46.0875 24.8436C45.4918 24.7771 44.8801 24.5706 44.3002 24.6252C42.5009 24.7959 40.7513 25.1372 39.2956 26.1714C37.7585 27.2225 36.3954 28.4489 35.2443 29.8169C34.1699 31.1361 33.0975 32.4588 32.0668 33.8087C31.6696 34.3412 31.3896 34.9505 31.0441 35.5461C31.4561 35.8298 31.8871 36.0926 32.3349 36.3329C32.4488 36.375 32.5728 36.393 32.6964 36.3856C32.8201 36.3782 32.9399 36.3455 33.0459 36.2902C34.5453 35.1929 36.3485 34.7013 38.2093 34.3583C40.0702 34.0153 41.925 34.2269 43.7183 34.8549C45.0318 35.3027 46.1507 36.0906 46.9196 37.1094C47.0434 37.2518 47.132 37.4144 47.1798 37.5873C47.287 38.159 47.7081 38.357 48.3197 38.3621L51.1934 38.3809C51.2152 38.3809 51.247 38.3809 51.2609 38.3809C52.0553 38.9287 52.7722 38.3963 53.509 38.2392C54.9091 37.9372 56.2893 38.1556 57.6794 38.2819C58.3765 38.3433 59.1034 38.1897 59.8084 38.0891C59.8838 38.0771 60.007 37.7102 59.9236 37.5924C59.3734 36.7596 58.7777 35.9489 58.1958 35.1314C57.7271 34.4726 57.2525 33.8173 56.8056 33.1517C56.7619 33.0868 56.8414 32.9605 56.8652 32.8633C57.5801 33.8178 58.2951 34.7719 59.01 35.7253C59.6157 36.5411 60.2155 37.3586 60.8093 38.1624C60.1678 38.3331 59.6038 38.5038 59.0219 38.6079C58.6711 38.6865 58.3047 38.6993 57.9475 38.6454C55.9993 38.2512 54.0829 38.0396 52.2678 39.0414C52.2007 39.0789 52.1252 39.1039 52.0462 39.1148C51.9672 39.1257 51.8864 39.1222 51.809 39.1045C50.4561 38.5863 48.9316 38.5033 47.5134 38.8707C46.9733 38.0549 46.5999 37.1948 45.9406 36.5496C44.1215 34.7713 41.6768 34.3173 39.0474 34.5358C36.6845 34.7195 34.4517 35.547 32.6745 36.8978L30.5039 35.5325C30.6926 35.256 30.917 34.9095 31.1593 34.5716C33.0141 32.0116 34.8471 29.4243 37.3574 27.2671C38.7475 26.0724 40.3005 25.1014 42.205 24.6201C45.0787 23.8947 47.6227 24.6201 49.9502 26.0417C52.8397 27.8184 54.8693 30.235 56.7838 32.7318Z" fill="white"/>
<path d="M54.8407 44.8074C54.5587 45.1351 54.2926 45.4781 53.9888 45.7905C53.4903 46.3025 52.9819 46.8059 52.4417 47.2821C52.358 47.3434 52.2597 47.3883 52.1537 47.4137C52.0478 47.439 51.9366 47.4442 51.8281 47.4289C51.7129 47.4033 51.5759 47.1234 51.6056 46.98C51.7725 46.1693 51.9591 45.3604 52.1895 44.56C52.3365 44.048 52.5867 43.5684 52.7436 43.0615C52.8012 42.8635 52.7714 42.5222 52.6284 42.4369C52.4958 42.3533 52.3451 42.2932 52.1852 42.2601C52.0253 42.227 51.8594 42.2215 51.697 42.244C51.3117 42.343 51.0774 42.3362 50.7497 42.116C50.0467 41.6433 48.9087 41.6689 48.1541 42.116C46.2158 43.2612 44.8574 46.0891 45.479 47.9852C45.6776 48.5809 46.1284 48.958 46.7719 49.0587C47.4153 49.1594 47.9039 48.888 48.1918 48.3607C48.3798 48.0122 48.601 47.6777 48.8531 47.3606C48.9663 47.2189 49.2166 47.0431 49.3595 47.0687C49.5025 47.0943 49.6554 47.3265 49.7329 47.492C49.8719 47.789 49.8938 48.1354 50.0765 48.4051C50.5789 49.1475 51.4785 49.1935 52.1776 48.4955C52.5569 48.1166 52.8131 47.9699 53.389 48.289C53.679 48.4494 54.2489 48.3487 54.6421 48.2344C55.2617 48.0552 55.7324 48.0637 56.2309 48.4904C57.0888 49.2243 57.8454 49.1731 58.8444 48.3726C59.176 48.1047 59.4084 47.9153 59.9227 48.1644C60.169 48.2839 60.6595 48.1371 60.9832 48.0074C61.2117 47.9028 61.4715 47.8596 61.7289 47.8833C61.9863 47.9071 62.2295 47.9967 62.427 48.1405C63.7834 48.9939 64.6373 48.9188 65.6244 47.7531C66.0493 47.2497 66.3234 47.2667 66.8497 47.5927C67.791 48.1747 68.3927 48.0245 68.9389 47.1353C69.1712 46.7598 69.3559 46.3622 69.5922 45.9884C69.6302 45.9313 69.6813 45.8814 69.7424 45.8418C69.8035 45.8022 69.8734 45.7737 69.9477 45.758C70.0311 45.7478 70.1821 45.8894 70.2337 45.9901C70.3256 46.1756 70.3884 46.3707 70.4204 46.5704C70.5753 47.5176 71.3419 47.8828 72.3646 47.4937C72.4934 47.46 72.6272 47.4421 72.7618 47.4408C72.63 47.6366 72.4226 47.7866 72.1756 47.8648C71.9286 47.9431 71.6576 47.9446 71.4094 47.8692C70.6587 47.6797 70.2476 47.1711 70.0033 46.5568C69.9657 46.3996 69.9391 46.2405 69.9239 46.0806C69.6479 46.4834 69.4334 46.7138 69.3182 46.9766C68.7224 48.3334 67.5487 48.5962 66.1864 47.5876C65.8746 47.8794 65.5906 48.202 65.2371 48.4699C64.2838 49.2021 63.3981 49.2294 62.4727 48.4955C61.9722 48.0962 61.5492 47.9955 60.9117 48.2634C60.5801 48.4034 60.1174 48.2975 59.7102 48.3214C59.5191 48.3285 59.3312 48.3661 59.1562 48.4324C59.0216 48.5146 58.9001 48.6116 58.7947 48.7208C57.8772 49.4308 57.1464 49.4717 56.2527 48.7669C55.7443 48.3658 55.2598 48.3078 54.6421 48.4904C53.6948 48.7703 53.4665 48.7293 52.8071 48.3402C52.4099 48.6269 52.0743 49.0485 51.6295 49.1543C51.1846 49.2601 50.6643 49.0331 50.1738 48.9529L49.8858 48.7071L49.7806 48.5791L49.6733 48.3982C49.6475 48.3419 49.6217 48.2873 49.5979 48.2276L49.5363 48.0347L49.4747 47.8641C49.4569 47.707 49.441 47.5483 49.4231 47.3913L49.2463 47.3555L48.9802 47.8129L48.9683 47.8282L48.867 47.9784L48.5751 48.4324L48.0171 49.0741L47.878 49.1697L47.6794 49.2516C47.6652 49.2476 47.6497 49.2483 47.6361 49.2537C47.6225 49.2591 47.6117 49.2687 47.606 49.2806L47.1949 49.3591L46.6289 49.3301C46.6168 49.3128 46.5978 49.3 46.5755 49.294C46.5532 49.288 46.529 49.2893 46.5077 49.2977C45.4195 48.8437 45.0024 48.0552 45.0242 47.0619C45.066 45.3245 45.8444 43.8193 47.1571 42.5376C48.2891 41.4316 49.5403 41.2985 51.1012 41.9761C51.2863 42.0313 51.4885 42.0258 51.6692 41.9607C52.1855 41.79 52.6622 41.8976 52.9283 42.2525C53.0912 42.5422 53.1244 42.8733 53.0216 43.1827C52.7118 44.2067 52.3087 45.1965 51.983 46.2103C51.8881 46.5613 51.9039 46.9278 52.0286 47.2718L54.8407 44.8074Z" fill="#E3E3E3"/>
<path d="M16.9784 43.2167C15.7213 43.9659 14.3669 44.4916 12.8079 44.623C12.6093 44.6384 12.3492 44.9029 12.2936 45.0906C12.0314 45.9917 11.7931 46.9031 11.6144 47.8213C11.4793 48.504 11.1596 48.8112 10.3275 48.8453C9.4954 48.8794 8.86983 48.5569 8.84997 47.9169C8.81116 47.2359 8.92303 46.5549 9.17963 45.9098C9.90649 44.2646 10.7565 42.6672 11.5767 41.0441C11.9163 40.3751 12.3035 39.7232 12.7484 38.9227C11.7429 39.3301 10.9144 40.0019 10.3831 40.841C10.2168 41.1095 10.0747 41.3885 9.95812 41.6756C9.77541 42.0903 9.68207 42.5767 9.02672 42.6262C8.50044 42.6655 7.71203 42.1535 7.63656 41.5766C7.54856 41.0221 7.62718 40.4575 7.86494 39.9365C8.72883 38.2554 10.3394 37.2058 12.3254 36.6938C13.5199 36.3858 14.7687 36.2633 16.0132 36.332C18.9425 36.5198 20.2453 38.4398 19.1907 40.795C19.1232 40.9451 19.0458 41.0936 18.9723 41.2421L18.6803 41.6295L18.2951 41.9043C18.4182 41.6517 18.5254 41.3923 18.6704 41.1465C19.2662 40.1532 19.5998 39.1156 18.9445 38.0745C18.2057 36.9038 16.1165 36.1614 14.5496 36.4498C13.722 36.5941 12.9076 36.7897 12.1129 37.0352C10.1269 37.6666 8.58187 38.7179 7.89076 40.5151C7.62266 41.2131 7.80934 41.7097 8.43491 42.1398C8.88373 42.4521 9.25709 42.4043 9.52519 41.9691C9.76747 41.5749 9.9899 41.1721 10.2004 40.7642C10.6538 39.8948 11.4288 39.1784 12.4048 38.7265C12.5895 38.636 12.8814 38.7094 13.1237 38.706C13.1279 38.8978 13.0971 39.089 13.0323 39.2726C12.095 40.8956 11.0683 42.4828 10.2083 44.1366C9.63044 45.2493 9.03466 46.3928 9.07041 47.666C9.08828 48.2326 9.53512 48.5705 10.2878 48.5978C10.9352 48.62 11.2331 48.3435 11.3522 47.7684C11.5369 46.8775 11.805 46.002 12.0116 45.1145C12.1347 44.5872 12.5398 44.4319 13.0959 44.326C13.8878 44.1586 14.666 43.9465 15.4254 43.6912C16.0212 43.4966 16.6011 43.2355 17.1869 43.0085L16.9784 43.2167Z" fill="#E3E3E3"/>
<path d="M50.2902 22.8266C50.4073 22.7805 50.5404 22.6798 50.6397 22.6986C52.3416 23.0229 53.7874 22.5689 55.0902 21.6541C56.4585 20.6933 57.2945 19.4491 57.8705 18.0224C58.3502 16.8816 58.5733 15.6729 58.5278 14.4606C58.4585 13.1216 58.0411 11.813 57.3065 10.6308C56.8259 9.84403 56.1943 9.20233 55.3344 8.79785C54.4028 8.323 53.3214 8.11111 52.2423 8.19198C51.066 8.31457 49.9758 8.78452 49.1582 9.52147C47.6687 10.8339 46.499 12.3648 46.2051 14.2626C45.9588 15.8378 45.9449 17.4045 46.493 18.9388C46.6519 19.3809 46.916 19.7922 47.1107 20.2274C47.1405 20.2905 47.0491 20.398 47.0134 20.4748C45.5597 18.391 45.4048 16.1501 46.0204 13.8496C46.4068 12.2956 47.2748 10.8603 48.5326 9.69555C51.6882 6.80617 56.2221 7.43252 57.942 11.1087C59.6618 14.7848 59.0779 18.2869 55.9441 21.2872C54.4666 22.6986 52.5879 23.4478 50.2902 22.8266Z" fill="white"/>
<path d="M14.6854 28.375C14.5781 28.87 14.4868 29.3666 14.3636 29.8598C14.2365 30.3906 13.8652 30.4742 13.3131 30.2967C12.4571 30.0237 11.5913 29.7847 10.7314 29.5253C10.6202 29.4929 10.4732 29.4963 10.3997 29.4332C10.0363 29.1226 9.52789 28.8341 9.40675 28.457C9.34518 28.2692 9.94295 27.7743 10.3401 27.6548C11.2551 27.3534 12.2117 27.1549 13.186 27.0643C14.3636 26.9807 14.6754 27.3425 14.6854 28.375Z" fill="white"/>
<path d="M82.3658 33.5818C82.3167 33.941 82.2417 34.2972 82.1414 34.6485C82.1085 34.7782 82.0374 34.8984 81.9349 34.9977C81.8324 35.097 81.702 35.172 81.556 35.2156C81.4101 35.2591 81.2536 35.2696 81.1016 35.2462C80.9495 35.2229 80.807 35.1663 80.6877 35.082C80.0919 34.7082 79.5339 34.3754 78.7475 34.3054C77.9988 34.2389 77.5956 33.0886 78.2113 32.6278C78.892 32.1096 79.6888 31.7165 80.5527 31.4724C81.4086 31.2437 82.1553 31.9417 82.3261 32.9077C82.3579 33.0869 82.3499 33.2797 82.3658 33.5818Z" fill="white"/>
<path d="M10.2315 34.0838C10.152 34.6777 9.88591 35.0429 9.36957 35.3075C9.0719 35.4722 8.78422 35.6499 8.50767 35.8399C7.62194 36.4065 6.50982 36.1454 6.29534 35.2204C6.1649 34.5697 6.18582 33.9032 6.3569 33.2595C6.51777 32.5922 7.09766 32.3413 7.87217 32.5136C8.46671 32.6258 9.03348 32.8275 9.54632 33.1093C9.87598 33.3141 10.009 33.7527 10.2315 34.0838Z" fill="white"/>
<path d="M41.6664 49.4406C41.8549 49.1949 42.0718 48.9662 42.3138 48.7579C43.5887 47.8483 44.3474 46.7577 44.3891 45.2764C44.4209 44.1858 43.7794 43.5697 42.7844 43.1328C41.9404 42.7556 41.9364 42.6515 42.6911 42.1207C43.9502 41.2316 44.5599 39.9738 43.559 38.6426C42.9632 37.8609 41.9523 37.5537 40.868 37.5144C39.4064 37.4615 37.9527 37.6424 36.7154 38.2859C35.0651 39.1392 33.7028 40.2792 33.24 41.9979C33.0712 42.6276 33.3175 43.1601 33.7703 43.6226C34.1198 43.981 34.5944 43.9093 34.8566 43.4809C34.9931 43.2681 35.0884 43.0375 35.1386 42.7983C35.3829 41.4449 36.5287 40.6291 37.5932 39.7792C37.7561 39.6495 38.0698 39.6597 38.3141 39.6085L37.2556 40.4294C36.2493 41.186 35.5403 42.1918 35.226 43.3086C35.1167 43.684 34.9499 44.0902 34.4574 44.0476C34.0276 44.0014 33.6304 43.8268 33.3354 43.5543C32.7396 42.9604 32.827 42.2385 33.0832 41.5336C34.1357 38.6221 38.5842 36.5741 41.9881 37.4376C44.1726 37.9872 44.9948 39.9755 43.69 41.5456C43.3544 41.9484 42.9552 42.3136 42.564 42.7181C42.8659 42.8768 43.2074 43.0304 43.5153 43.2301C44.3851 43.7711 44.8359 44.5374 44.7267 45.4368C44.5122 47.1861 43.5053 48.5617 41.6664 49.4406Z" fill="#E3E3E3"/>
<path d="M73.3125 26.4757C73.4694 25.805 73.7474 25.3766 74.4008 25.153C75.2448 24.8646 76.0908 24.9687 76.5675 25.4278C76.7859 25.6394 76.9924 25.8613 77.2168 26.0695C77.7094 26.5303 77.7967 27.0492 77.4254 27.5765C77.054 28.1039 76.4324 28.2131 75.8168 28.0885C75.2136 27.9907 74.6382 27.793 74.1228 27.5065C73.7534 27.2864 73.5746 26.829 73.3125 26.4757Z" fill="white"/>
<path d="M45.3645 51.8454C45.3347 51.8744 45.293 51.9342 45.2752 51.9307C44.1531 51.644 43.3071 52.1867 42.3836 52.5827C41.6349 52.9052 40.8088 53.0947 40.0144 53.337C38.4257 53.8183 36.7674 53.8047 35.1409 53.564C33.3774 53.3012 31.7887 52.6817 30.6746 51.3914C30.476 51.1508 30.2893 50.8914 30.1761 50.7463C29.3182 51.2191 28.6827 51.5348 28.1068 51.9171C27.9876 51.9956 27.9896 52.4018 28.1068 52.5264C28.7581 53.1817 29.4711 53.791 30.1543 54.4259C30.3648 54.6239 30.5514 54.8474 30.7381 55.0591C29.1613 54.2381 27.9836 53.0725 26.9648 51.8659L30.2277 50.376C31.9376 52.7551 34.569 53.5282 37.669 53.3968C40.0998 53.2927 42.2367 52.4547 44.2008 51.2327L45.3645 51.8454Z" fill="white"/>
<path d="M14.9883 24.4466C14.7897 24.7162 14.6487 25.1293 14.3727 25.2146C14.0966 25.2999 13.5902 25.1258 13.3618 24.9193C12.3573 24.0544 11.6916 22.9418 11.4573 21.7364C11.4097 21.4719 11.5844 21.1783 11.6559 20.8984C11.9379 20.9957 12.2974 21.0316 12.488 21.2039C13.1891 21.8273 13.8437 22.4879 14.4482 23.182C14.7242 23.5062 14.7917 23.9619 14.9883 24.4466Z" fill="white"/>
<path d="M38.159 8.6461C37.313 8.49762 36.473 8.27235 35.621 8.21944C34.599 8.16702 33.5933 8.45836 32.8169 9.03181C31.1626 10.2026 30.4496 11.7744 30.1656 13.5681C29.9829 14.7304 30.1259 15.8516 30.3344 16.9814C30.6264 18.5584 31.5876 19.8589 32.799 20.987C34.0104 22.1151 35.4363 22.9377 37.3666 22.779C37.7188 22.7662 38.0716 22.7713 38.4231 22.7943C36.6775 23.3507 35.1027 22.9292 33.7066 22.0434C29.4805 19.3674 28.4359 13.4401 31.4982 9.80493C32.9579 8.07266 35.3132 7.47021 37.5692 8.26893C37.7831 8.37335 37.9812 8.50003 38.159 8.6461Z" fill="white"/>
<path d="M8.28125 22.4373C8.46793 22.1557 8.62879 21.6642 8.84724 21.6454C9.17691 21.6147 9.64162 21.8416 9.8839 22.0857C10.6783 22.9185 11.0119 23.9425 11.1767 24.987C11.2085 25.1969 11.0338 25.5588 10.8431 25.6321C10.6947 25.6747 10.5373 25.6893 10.3817 25.6749C10.2261 25.6604 10.0759 25.6173 9.94149 25.5485C9.01207 25.016 8.70823 24.1559 8.49772 23.2701C8.43814 23.0141 8.42821 22.7479 8.39643 22.4868L8.28125 22.4373Z" fill="white"/>
<path d="M29.4042 43.1791L27.8552 43.017C27.5077 44.0529 27.1025 45.1844 26.7629 46.3296C26.7014 46.5412 26.8126 46.9201 26.9933 47.0123C27.174 47.1044 27.6129 47.043 27.8254 46.9116C28.4212 46.5498 28.9395 46.118 29.6763 45.5753C29.7041 45.9593 29.8233 46.2375 29.724 46.4286C29.1123 47.654 28.1352 48.579 26.6061 48.9886C25.2159 49.3624 24.3262 48.777 23.9667 47.2068L23.4206 47.3775L23.3789 47.34L23.9469 46.8911C24.0919 47.1249 24.3262 47.3485 24.3639 47.5942C24.4851 48.3571 24.9875 48.8384 25.8792 48.7992C26.385 48.7668 26.8768 48.6411 27.321 48.4305C27.8123 48.2122 28.2484 47.9123 28.6039 47.5481C28.9595 47.184 29.2274 46.7629 29.3923 46.3091C28.7389 46.6658 28.2722 46.9508 27.7718 47.1846C27.0449 47.526 26.5187 47.2546 26.5187 46.5412C26.5187 45.3653 27.0489 44.3072 27.5474 43.2388C27.6983 42.9163 27.9068 42.8395 28.2862 42.8327C28.6359 42.7962 28.9802 42.7275 29.3129 42.6279C29.1778 42.3497 29.0428 42.0698 28.9058 41.7916C28.8621 41.6994 28.8124 41.6107 28.7648 41.5185L28.7926 41.498L29.3049 41.6687L29.4459 41.7899L29.4837 41.7575L29.444 41.7899C29.5075 41.8564 29.5711 41.9247 29.6425 41.993L29.7041 42.1073L29.7716 42.249C29.7716 42.4316 29.7518 42.6142 29.7399 42.7968L29.6326 42.9675L29.4042 43.1791Z" fill="#E3E3E3"/>
<path d="M39.8266 22.1752C40.1046 21.8339 40.3231 21.4396 40.6706 21.1615C41.602 20.4105 41.9019 19.3985 42.2037 18.4206C42.6746 16.9766 42.6842 15.4503 42.2315 14.002C41.991 13.1893 41.6173 12.41 41.1214 11.6878C40.6052 11.0079 40.0401 10.3564 39.4294 9.73705C39.0719 9.35476 38.6549 9.01343 38.2656 8.65332C39.3678 8.97929 40.0649 9.72852 40.7123 10.4829C42.8055 12.9183 43.3317 15.6575 42.4857 18.5503C42.1442 19.7176 41.5921 20.8799 40.4899 21.7383C40.2853 21.8987 40.049 22.0301 39.8266 22.1752Z" fill="white"/>
<path d="M71.5665 33.5017C72.2914 33.2116 72.8852 33.4079 73.4115 33.8652V33.8533L73.5664 33.9847L73.5505 33.9762C73.6751 34.2402 73.7644 34.5157 73.8166 34.7971C73.8142 35.0349 73.7461 35.2689 73.618 35.4798C73.4333 35.8211 72.1702 36.0173 71.5566 35.7579C71.0323 35.5344 70.8933 35.1214 71.1098 34.6247C71.2547 34.2953 71.3421 33.942 71.4553 33.6007L71.4394 33.6092L71.6023 33.6178C71.6023 33.5717 71.6023 33.5239 71.5923 33.4778L71.5665 33.5017Z" fill="white"/>
<path d="M18.7574 42.4073C19.095 42.1923 19.4326 41.9738 19.7702 41.7605C20.1562 41.5052 20.6099 41.3362 21.0907 41.2686C21.5714 41.201 22.0641 41.2369 22.5247 41.3731C23.9705 41.7639 24.5325 42.9091 23.8771 44.0867C23.5572 44.6896 23.0179 45.1867 22.3405 45.5032C21.6632 45.8196 20.8844 45.9383 20.1217 45.8411C20.0284 46.3395 20.4216 46.8651 21.0492 46.8276C21.6881 46.7648 22.3093 46.606 22.8842 46.3583C23.2813 46.2047 23.5911 45.8958 23.9407 45.6568L23.9824 45.691C23.7083 46.4078 22.5406 47.0563 21.4185 47.1246C20.4673 47.1775 19.8675 46.715 19.7782 45.8377C19.9668 45.7615 20.1676 45.7098 20.3739 45.6841C21.8733 45.6841 22.9378 45.0288 23.5614 43.9365C23.7997 43.515 23.8533 42.7896 23.5832 42.4244C22.7888 41.3441 21.3987 41.211 20.1317 41.9431C19.6094 42.2435 19.1049 42.5695 18.5926 42.8835L18.5469 42.8477L18.7574 42.4073Z" fill="#E3E3E3"/>
<path d="M23.9414 45.657C24.5511 44.4299 25.1687 43.2079 25.7486 41.9706C25.7983 41.8648 25.6275 41.6293 25.4924 41.5235C25.1786 41.2589 24.7259 41.078 24.5193 40.7708C24.3823 40.5677 24.4915 40.1547 24.6603 39.9277C24.7398 39.8185 25.2402 39.8612 25.4984 39.9482C25.836 40.0626 26.12 40.2895 26.4695 40.4943C26.7853 39.9311 27.0554 39.4191 27.3552 38.9208C27.7524 38.2484 28.2866 37.9685 28.8308 38.1016C29.4742 38.2603 30.0005 38.8986 30.0104 39.5301L29.8972 39.7007L29.7384 39.938L29.4703 40.3151L29.3034 40.5421L29.3312 40.566L29.3034 40.5404C29.1307 40.8698 28.9559 41.1975 28.7831 41.5269L28.7553 41.5474C28.7255 41.3238 28.5964 41.0593 28.6898 40.8818C28.9254 40.4917 29.1908 40.1154 29.4842 39.7554C29.7562 39.3782 29.5596 38.8559 29.087 38.5607C28.6143 38.2654 28.2251 38.2996 27.9331 38.6836C27.588 39.1344 27.2915 39.6114 27.0474 40.1086C26.7257 40.7708 26.3861 40.8698 25.691 40.4158C25.5798 40.3442 25.4765 40.2332 25.3514 40.2093C25.1945 40.1769 24.9284 40.1633 24.8688 40.2366C24.819 40.3047 24.7886 40.3819 24.78 40.4619C24.7714 40.542 24.7848 40.6227 24.8192 40.6974C24.965 40.9037 25.1702 41.0741 25.415 41.1924C26.0564 41.4859 26.1954 41.8272 25.8717 42.4195C25.3931 43.2916 25.0555 44.2183 24.6087 45.104C24.4895 45.3379 24.1916 45.5068 23.9772 45.7065L23.9414 45.657Z" fill="#E3E3E3"/>
<path d="M74.5255 39.9258C74.6208 40.5914 74.7698 41.257 74.7876 41.9243C74.7954 42.3667 74.7002 42.8059 74.5076 43.2162C74.0846 44.1037 73.5842 44.9656 73.0857 45.824C73.0102 45.9537 72.7044 46.1193 72.617 46.08C72.4184 45.993 72.1682 45.7899 72.1662 45.6312C72.1631 45.1717 72.2224 44.7135 72.3429 44.2658C72.5415 43.5047 72.8494 42.7623 73.0499 42.0011C73.1177 41.7355 73.0755 41.4578 72.9308 41.216C72.7322 40.9259 72.3946 40.9242 72.0173 41.1153C71.8985 41.1528 71.7718 41.1684 71.6456 41.161C71.5193 41.1537 71.3963 41.1236 71.2844 41.0727C70.2081 40.5982 69.1972 40.5504 68.2301 41.2723C68.1308 41.3457 67.9322 41.3201 67.7812 41.3406L68.9371 40.5982C68.953 40.6013 68.9697 40.6002 68.985 40.595C69.0002 40.5899 69.0133 40.5808 69.0225 40.5692L69.7374 40.4787H70.0015L70.5794 40.5607C71.1474 40.7501 71.6379 41.0454 72.3668 40.815C73.0182 40.605 73.5822 41.2621 73.3816 41.8936C73.1135 42.7315 72.7858 43.5559 72.5594 44.4007C72.4422 44.8307 72.474 45.2898 72.4383 45.7353L72.6508 45.8121C72.7938 45.6824 72.9943 45.5748 73.0678 45.4212C73.5623 44.3972 74.0449 43.3732 74.4858 42.3288C74.5592 42.1581 74.4321 41.9072 74.3487 41.7092C74.0886 41.0812 73.9456 40.4787 74.5255 39.9258Z" fill="#E3E3E3"/>
<path d="M35.0323 48.2237C35.362 48.2237 35.6937 48.239 36.0253 48.2237C36.919 48.181 37.2288 47.9011 37.4353 47.1399C37.6382 46.3776 37.8881 45.625 38.184 44.8854C38.5395 44.015 40.5671 43.643 41.3734 44.2693C41.8282 44.626 41.8918 45.0612 41.7388 45.5476C41.2126 47.2185 39.8065 48.1452 38.0589 48.8056C36.9388 49.2289 35.7711 49.246 34.5954 49.1811C34.3551 49.1675 34.1327 48.9183 33.9023 48.7766L34.6491 48.9166L34.8735 48.9371L35.5705 48.9541L36.2894 48.9302C38.4164 48.5889 40.2117 47.8209 41.2205 46.0716C41.3841 45.7815 41.4755 45.4653 41.4886 45.1431C41.5105 44.5185 41.1073 44.1806 40.3924 44.2352C39.8514 44.2789 39.3182 44.3769 38.8036 44.527C38.6348 44.5748 38.4918 44.8172 38.4303 44.9947C38.1526 45.7035 37.9251 46.4262 37.7491 47.1587C37.7173 47.4207 37.6031 47.6704 37.4187 47.8809C37.2343 48.0913 36.9868 48.2547 36.7025 48.3534L36.5516 48.3858L35.5745 48.4899H35.4196L35.0006 48.3653L35.0323 48.2237Z" fill="#E3E3E3"/>
<path d="M66.1888 41.5252C66.3874 42.4758 65.8909 43.167 65.0528 43.7251C65.2333 43.4967 65.3888 43.2545 65.5175 43.0015C65.6836 42.594 65.8014 42.1732 65.869 41.7454C65.8829 41.6515 65.5751 41.4297 65.4043 41.4211C64.1155 41.3529 62.8226 41.3341 61.5318 41.2778C61.0075 41.2539 60.795 41.457 60.795 41.8785C60.795 42.0406 60.8049 42.2045 60.795 42.3649C60.7493 42.9145 61.0452 43.138 61.6787 43.1227C61.9919 43.1397 62.3025 43.1826 62.6061 43.2507C62.4642 43.5076 62.2961 43.7531 62.1037 43.9845C61.2915 44.8208 60.4593 45.64 59.6193 46.4541C59.4736 46.558 59.311 46.6431 59.1367 46.7067C59.5339 46.251 59.9013 45.7731 60.3283 45.3413C60.9638 44.7065 61.643 44.104 62.3619 43.4333C62.218 43.406 62.072 43.3883 61.925 43.3804C61.3649 43.4077 60.6659 43.4196 60.5726 42.8803C60.4713 42.3018 60.6699 41.6686 60.8406 41.0815C60.8744 40.9637 61.3709 40.8784 61.6469 40.8921C62.8901 40.9552 64.1313 41.0405 65.3686 41.1617C65.6546 41.1924 65.9167 41.3989 66.1888 41.5252Z" fill="#E3E3E3"/>
<path d="M58.5512 44.2555C58.712 43.9944 58.8689 43.7333 59.0318 43.4739C59.1946 43.2144 59.4071 42.9977 59.4925 42.7332C59.7269 42.0095 59.4925 41.8252 58.6286 41.7552C57.7648 41.6853 56.887 41.4617 56.0072 41.3678C55.61 41.3252 54.9626 41.2996 54.7998 41.4941C54.4304 41.9396 54.194 42.5523 54.6568 43.0711C54.8256 43.2588 55.2664 43.2622 55.5782 43.3612C55.7987 43.4312 56.0132 43.5182 56.2316 43.5984C56.152 43.7693 56.0436 43.9291 55.9099 44.0729C55.5743 44.3391 55.195 44.5661 54.8355 44.8102L56.0032 43.6838C55.7431 43.6513 55.5882 43.6206 55.4313 43.6138C54.5019 43.5677 54.0928 43.1718 54.1742 42.3628C54.2073 42.1217 54.2651 41.8835 54.347 41.6511C54.5118 41.1391 54.8633 40.9582 55.5107 41.0521C56.74 41.2228 57.9812 41.3559 59.2204 41.46C59.8023 41.5095 59.9036 41.8286 59.9413 42.2041C60.0347 43.1615 59.2939 43.7111 58.5512 44.2555Z" fill="#E3E3E3"/>
<path d="M75.3979 42.4958C75.5746 42.4395 75.8825 42.3063 75.9103 42.3405C76.0652 42.5299 76.2955 42.7979 76.236 42.9719C76.0175 43.6256 75.658 44.2451 75.4257 44.8954C75.2003 45.4645 75.0536 46.0546 74.9888 46.6532C74.9272 47.5304 75.5349 47.9776 76.5537 47.9861C77.1614 47.9861 77.36 47.7557 77.3957 47.2505C77.4365 46.4554 77.5514 45.6644 77.7393 44.8851C77.8068 44.6257 78.2576 44.438 78.5337 44.2178C77.7393 45.0285 77.5864 46.0064 77.6003 47.0116C77.6122 47.9673 77.5209 48.1346 76.788 48.2063C75.7474 48.3121 74.8696 47.8837 74.8438 47.1106C74.8407 46.3667 74.9495 45.6255 75.1675 44.9056C75.3661 44.2229 75.7176 43.571 75.9996 42.9054C76.0218 42.8252 76.0364 42.7436 76.0433 42.6613L75.3979 42.4958Z" fill="#E3E3E3"/>
<path d="M23.413 47.3957C22.4697 48.3326 20.2931 48.8549 18.9586 48.4623C17.2546 47.964 16.5754 46.585 17.2209 44.8783C17.4195 44.3663 17.6578 43.8817 17.8802 43.3833L18.5415 42.8525L18.5872 42.8884C18.4661 43.1907 18.3181 43.4846 18.1443 43.7673C17.4393 44.7452 17.1057 45.7897 17.4592 46.9144C17.5723 47.2957 17.8346 47.6319 18.2019 47.8667C19.6159 48.6245 21.0497 48.4999 22.4439 47.7626C22.7378 47.609 23.0615 47.4964 23.3713 47.3632L23.413 47.3957Z" fill="#E3E3E3"/>
<path d="M37.7556 40.4485C37.9979 40.3018 38.2203 40.0884 38.4884 40.0287C38.8498 39.9451 39.3006 39.8802 39.6124 40.0014C39.8249 40.0833 40.0096 40.5134 39.954 40.7574C39.8468 41.3241 39.5946 41.8685 39.39 42.4641L39.954 42.2337L39.398 42.6092C39.3344 42.4061 39.1855 42.1859 39.2292 41.9999C39.3324 41.5562 39.6263 41.1363 39.6641 40.6926C39.7197 40.1396 39.2133 39.8956 38.6969 40.2113C38.331 40.4239 38.0354 40.7144 37.839 41.0544C37.0665 42.5904 36.3615 44.1554 35.6187 45.7051C35.5298 45.8326 35.4186 45.9478 35.2891 46.0464L35.3109 45.6795C35.3245 45.6752 35.3358 45.6667 35.3424 45.6556C35.349 45.6445 35.3505 45.6317 35.3467 45.6197C35.3745 45.5583 35.4023 45.4951 35.4321 45.4337C36.0457 44.0547 36.6534 42.6757 37.277 41.3002C37.41 40.9998 37.5947 40.7267 37.7556 40.4485Z" fill="#E3E3E3"/>
<path d="M33.4556 48.5772C33.1597 48.8452 33.1915 49.0517 33.5052 49.3333C34.2996 50.0518 35.2787 50.3573 36.3948 50.4204C37.953 50.507 39.5089 50.2243 40.8929 49.6029C41.1088 49.5325 41.3334 49.4832 41.5622 49.4561C40.9823 49.748 40.4342 50.1217 39.8126 50.3095C38.4582 50.7293 37.0501 50.9205 35.6064 50.6303C34.6908 50.4443 33.8548 50.1337 33.2649 49.4749C33.1017 49.2776 32.9825 49.056 32.9134 48.8213C32.8777 48.712 32.9849 48.5704 33.0266 48.4424L33.4556 48.5772Z" fill="#E3E3E3"/>
<path d="M74.3147 24.5637C73.7607 23.9391 73.7587 22.7479 74.3147 22.2256C74.385 22.1818 74.4672 22.1542 74.5535 22.1455C74.6397 22.1369 74.7271 22.1474 74.8072 22.1761C75.403 22.683 75.0813 24.2446 74.3147 24.5637Z" fill="white"/>
<path d="M77.0693 21.9176C76.8846 22.4535 76.7515 22.9416 76.5331 23.4127C76.4556 23.5748 76.1637 23.6635 75.9691 23.7864C75.838 23.6158 75.5719 23.4195 75.5997 23.2744C75.7371 22.7304 75.9312 22.198 76.1796 21.6838C76.2438 21.608 76.3295 21.5475 76.4286 21.5081C76.5276 21.4687 76.6367 21.4516 76.7456 21.4585C76.8806 21.4893 76.9581 21.7538 77.0693 21.9176Z" fill="white"/>
<path d="M82.4297 31.8861C82.7019 31.509 83.0052 31.1491 83.3373 30.8092C83.6113 30.5618 83.8874 30.6676 83.9946 31.0123C84.1356 31.4646 83.7742 32.2599 83.2956 32.4971C83.1744 32.5568 82.9222 32.5961 82.8646 32.5415C82.6931 32.3368 82.5473 32.1172 82.4297 31.8861Z" fill="white"/>
<path d="M76.6719 24.0045C76.9757 23.5557 77.2399 23.1136 77.5695 22.7092C77.6509 22.6119 77.9667 22.5812 78.1256 22.6341C78.1918 22.684 78.2418 22.7478 78.2707 22.8193C78.2996 22.8908 78.3064 22.9675 78.2904 23.042C78.0874 23.4887 77.8458 23.9217 77.5675 24.3373C77.5084 24.3931 77.4333 24.4348 77.3497 24.4581C77.2662 24.4814 77.177 24.4857 77.0909 24.4704C76.932 24.4056 76.8466 24.2179 76.6719 24.0045Z" fill="white"/>
<path d="M82.9419 29.8225C82.7799 30.1897 82.5881 30.5467 82.368 30.8908C82.298 30.9611 82.2086 31.0152 82.1079 31.048C82.0073 31.0808 81.8986 31.0913 81.792 31.0786C81.7016 31.0286 81.6277 30.9595 81.5772 30.8779C81.5268 30.7963 81.5016 30.705 81.5041 30.6126C81.585 30.2367 81.7337 29.8739 81.9449 29.5374C82.0138 29.4531 82.1063 29.3851 82.214 29.3397C82.3216 29.2944 82.4408 29.2732 82.5606 29.278C82.7254 29.319 82.8029 29.6091 82.9419 29.8225Z" fill="white"/>
<path d="M8.99598 30.4453C9.60169 30.9061 9.6017 31.512 9.45474 32.1127C9.37133 32.4541 9.05755 32.5752 8.70604 32.3209C8.15395 31.9148 8.32077 30.7559 8.99598 30.4453Z" fill="white"/>
<path d="M79.4987 30.7206C79.1889 31.1046 78.887 31.7019 78.6924 31.678C78.0291 31.591 78.1184 31.009 78.2019 30.6011C78.2634 30.2905 78.5732 30.0157 78.7718 29.7256L79.4987 30.7206Z" fill="white"/>
<path d="M81.1291 29.4844C81.0418 29.8361 80.9263 30.1823 80.7836 30.5204C80.738 30.5957 80.672 30.6605 80.5911 30.7093C80.5102 30.758 80.4168 30.7892 80.3189 30.8003C80.1838 30.7917 79.9753 30.5733 79.9634 30.4367C79.9153 30.1004 79.9463 29.7591 80.0547 29.4332C80.156 29.1892 80.4718 29.01 80.6902 28.8018L81.1291 29.4844Z" fill="white"/>
<path d="M78.5234 44.2235C78.9603 43.8822 79.3933 43.5408 79.8361 43.2149C80.279 42.8889 81.0019 42.6807 81.0277 42.0321C81.0396 41.7488 80.9264 41.4604 80.851 41.0764L79.6038 41.8581L79.9553 41.2966L80.9185 40.8887L81.0495 40.9399C81.5381 41.5423 81.5838 42.254 80.9562 42.7387C80.2194 43.3053 79.3416 43.7354 78.5234 44.2235Z" fill="#E3E3E3"/>
<path d="M4.58007 32.0312C5.18578 32.4033 5.89079 32.6644 5.79348 33.4085C5.77362 33.5468 5.43005 33.7857 5.29104 33.7584C4.59993 33.6304 4.18289 32.6644 4.58007 32.0312Z" fill="white"/>
<path d="M6.41694 31.9714C6.36531 32.0175 6.23026 32.2479 6.05352 32.2752C5.64441 32.3366 5.06055 31.5754 5.10821 31.0139C5.12013 30.8433 5.3068 30.5685 5.45774 30.5497C5.89266 30.4951 6.43283 31.2324 6.41694 31.9714Z" fill="white"/>
<path d="M6.80743 29.8193C7.06361 29.9661 7.45285 30.0668 7.54421 30.2682C7.72096 30.659 7.7289 31.1045 7.80834 31.526C7.55414 31.4953 7.13709 31.526 7.07354 31.4185C6.85323 30.9697 6.66942 30.5084 6.52344 30.0378L6.80743 29.8193Z" fill="white"/>
<path d="M77.6758 25.4496C77.6956 24.755 78.1544 24.4409 78.6906 24.2037C78.7601 24.173 79.1136 24.429 79.0878 24.47C78.8996 24.8864 78.6731 25.2893 78.4106 25.6749C78.3488 25.7305 78.2714 25.7713 78.1857 25.7935C78.1001 25.8156 78.0092 25.8183 77.922 25.8012C77.781 25.7261 77.7215 25.5213 77.6758 25.4496Z" fill="white"/>
<path d="M72.7768 47.4235C72.7768 47.3467 72.7291 47.2528 72.7609 47.1931C73.5434 45.681 74.3331 44.1729 75.1301 42.6687C75.1699 42.5953 75.2989 42.5578 75.3883 42.498C74.6754 43.9675 73.9684 45.4386 73.2415 46.9012C73.1134 47.0918 72.9572 47.2673 72.7768 47.4235Z" fill="#E3E3E3"/>
<path d="M78.7824 42.1378C78.7387 41.9672 78.6871 41.7965 78.6514 41.6258C78.5441 41.0985 78.3157 40.7503 77.5591 40.7725C76.7528 40.8049 76.727 40.6752 76.7647 40.0352C76.7806 39.6935 76.6466 39.3592 76.3894 39.0983C76.2583 38.9822 75.7598 39.1751 75.4262 39.2177C75.3 39.2271 75.1731 39.2271 75.0469 39.2177C75.4441 38.7706 76.0081 38.6187 76.5363 38.8764C77.3426 39.2723 77.1142 39.9328 76.8163 40.5694C77.5611 40.6087 78.3396 40.3629 78.7884 41.0387C78.8281 41.177 78.8658 41.3135 78.9036 41.45C78.8959 41.4618 78.8931 41.4755 78.8956 41.4888C78.8981 41.5022 78.9058 41.5143 78.9175 41.5234C78.8758 41.7299 78.8301 41.933 78.7824 42.1378Z" fill="#E3E3E3"/>
<path d="M73.4104 33.8656C73.4322 33.6096 73.4322 33.3536 73.4818 33.0993C73.5315 32.845 73.6288 32.6265 73.7281 32.3262C74.3378 32.6965 74.4272 33.1215 74.3001 33.5976C74.2087 33.939 73.9227 34.0397 73.5414 33.9765L73.5573 33.985C73.5573 33.9373 73.5573 33.8912 73.5573 33.8434L73.3984 33.8536L73.4104 33.8656Z" fill="white"/>
<path d="M70.9102 34.3678L70.3144 34.7091C70.0701 34.3678 69.81 34.0264 69.6034 33.6731C69.5776 33.6254 69.8259 33.4615 69.947 33.3506L70.9102 34.3678Z" fill="white"/>
<path d="M72.5842 33.1267C72.1016 32.9134 71.8116 32.2154 72.0778 31.8757C72.2763 31.6266 72.4749 31.6385 72.6735 31.9013C72.9337 32.2563 72.9118 32.6489 72.5842 33.1267Z" fill="white"/>
<path d="M71.4397 33.6111C71.3304 33.5992 71.1457 33.6111 71.1259 33.5702C70.9737 33.2356 70.8444 32.8937 70.7386 32.5462C70.7287 32.5189 70.9372 32.4404 71.0524 32.3857C71.2153 32.6912 71.3821 32.995 71.539 33.3022C71.5592 33.3702 71.5692 33.4402 71.5687 33.5104V33.4968C71.5171 33.5412 71.4655 33.5838 71.4158 33.6282L71.4397 33.6111Z" fill="white"/>
<path d="M47.3828 20.9814C47.6589 21.1385 47.9448 21.2801 48.205 21.4508C48.8663 21.8894 49.5157 22.3399 50.1711 22.7854C48.9616 22.5038 48.0958 21.8297 47.3828 20.9814Z" fill="white"/>
<path d="M35.3126 45.6689C35.3126 45.7918 35.2987 45.913 35.2908 46.0359C35.1584 46.7185 35.0207 47.4046 34.8777 48.0941C34.7883 48.0429 34.6116 47.9712 34.6215 47.9405C34.8399 47.181 35.0783 46.4216 35.3126 45.6689Z" fill="#E3E3E3"/>
<path d="M58.8181 46.6977C58.7586 46.7916 58.6851 46.9759 58.6434 46.9691C58.0138 46.8855 57.3883 46.7797 56.7627 46.667C56.7309 46.667 56.723 46.5612 56.7031 46.5049L58.8181 46.6977Z" fill="#E3E3E3"/>
<path d="M56.8359 45.8037C57.0345 45.1672 57.5926 44.8344 58.2261 44.5664L56.8359 45.8037Z" fill="#E3E3E3"/>
<path d="M56.706 46.5073L56.2969 46.3758L56.6941 45.915C56.704 46.113 56.706 46.311 56.706 46.5073Z" fill="#E3E3E3"/>
<path d="M74.9755 39.2861C74.8801 39.4244 74.7769 39.5626 74.6875 39.7009C74.7848 39.5626 74.8841 39.4244 74.9755 39.2861Z" fill="#E3E3E3"/>
<path d="M18.6836 41.6291L18.9656 41.2451C18.8822 41.3731 18.7829 41.5011 18.6836 41.6291Z" fill="#E3E3E3"/>
<path d="M35.0338 48.2235L35.01 48.3463L34.8789 48.0938L35.0338 48.2235Z" fill="white"/>
<path d="M29.755 42.2637L29.6875 42.1221L29.8245 42.1938L29.755 42.2637Z" fill="#E3E3E3"/>
<path d="M46.5039 49.2905C46.5252 49.2822 46.5493 49.2809 46.5717 49.2869C46.594 49.2929 46.613 49.3057 46.625 49.323L46.5039 49.2905Z" fill="white"/>
<path d="M62.8134 45.9303C62.8829 46.0242 62.9445 46.1914 63.0259 46.1999C63.856 46.2819 64.6881 46.3382 65.5778 46.4065C65.6414 45.9474 65.7129 45.4439 65.7764 44.9404C65.8237 45.4325 65.8422 45.9264 65.832 46.4201C65.832 46.5174 65.4726 46.6881 65.2978 46.6744C64.559 46.613 63.8262 46.5037 63.0974 46.386C62.8916 46.3224 62.6982 46.2327 62.5234 46.1197L62.8134 45.9303Z" fill="#E3E3E3"/>
<path d="M67.1193 41.9566C67.155 41.9071 67.1888 41.8576 67.2225 41.8081L67.6296 41.4668C67.6495 41.5026 67.6992 41.5504 67.6872 41.5709C67.1497 42.4811 66.6069 43.3874 66.0588 44.2896C66.0429 44.3152 65.9734 44.3152 65.9297 44.3289C66.1978 43.6974 66.456 43.0625 66.7419 42.4379C66.8476 42.2665 66.9741 42.1051 67.1193 41.9566Z" fill="#E3E3E3"/>
<path d="M65.0567 43.7236L62.8087 45.9338C62.8087 45.874 62.765 45.7887 62.7967 45.7631C63.5454 45.077 64.3021 44.3995 65.0567 43.7236Z" fill="#E3E3E3"/>
<path d="M79.2891 42.3255C79.3963 42.1737 79.5035 42.0218 79.6088 41.8682C79.5035 42.0201 79.3963 42.1719 79.2891 42.3255Z" fill="#E3E3E3"/>
<path d="M67.6875 41.4328C67.694 41.4145 67.7057 41.398 67.7216 41.3846C67.7375 41.3713 67.7571 41.3616 67.7785 41.3564L67.6875 41.4328Z" fill="#E3E3E3"/>
<path d="M40.2214 41.9948C40.5411 41.4828 40.9463 40.993 41.1627 40.4485C41.5341 39.515 40.9363 38.9808 39.8083 39.1873C39.3336 39.2938 38.8656 39.4214 38.4062 39.5696C38.8888 38.8545 40.8013 38.6685 41.3732 39.2829C41.4318 39.3452 41.4762 39.4164 41.5043 39.4928C41.7287 40.143 41.1866 41.5271 40.5491 41.918C40.4457 41.9593 40.3349 41.9852 40.2214 41.9948Z" fill="#E3E3E3"/>
<path d="M17.5857 42.6535L17.1885 42.9948C16.5928 43.2269 16.0307 43.488 15.427 43.6775C14.6676 43.9334 13.8895 44.1461 13.0975 44.314C12.5415 44.425 12.1363 44.5752 12.0132 45.1025C11.8146 45.99 11.5386 46.8655 11.3539 47.7564C11.2347 48.3315 10.9368 48.6097 10.2894 48.5858C9.53674 48.5585 9.09785 48.2206 9.07203 47.654C9.03628 46.3808 9.63206 45.2374 10.21 44.1246C11.0699 42.4709 12.0966 40.8819 13.034 39.2606C13.0987 39.077 13.1295 38.8858 13.1253 38.694C12.883 38.694 12.5911 38.624 12.4064 38.7145C11.4304 39.1664 10.6554 39.8828 10.202 40.7522C9.99152 41.1601 9.76909 41.5629 9.52681 41.9571C9.25871 42.3975 8.88535 42.4452 8.43653 42.1278C7.81096 41.6943 7.62428 41.2011 7.89239 40.5031C8.58349 38.7162 10.1424 37.6649 12.1145 37.0351C12.9107 36.7912 13.7264 36.5973 14.5552 36.4549C16.1221 36.1664 18.2113 36.9088 18.9501 38.0796C19.6054 39.119 19.2658 40.1566 18.676 41.1516C18.531 41.3957 18.4238 41.6636 18.3007 41.9094L18.1021 42.2029L18.0723 42.2302L17.8737 42.4009L17.7267 42.5357V42.5255L17.5857 42.6535ZM14.7101 41.7592L14.722 41.7506L14.9941 41.5202C15.7885 40.8017 16.42 40.0133 16.4379 38.9602C16.4379 38.5012 16.2154 38.1291 15.6951 38.0455C15.1748 37.9618 14.6624 38.0284 13.9554 38.0284C15.0457 38.8476 15.0755 38.9517 14.6207 39.9365C14.4579 40.2778 14.2911 40.6345 14.1262 40.9826L14.0349 41.1533L13.9475 41.324L13.4113 42.3258L13.5404 42.4282L14.0825 42.1602L14.4797 41.9264L14.7101 41.7592Z" fill="#E3E3E3"/>
<path d="M23.3708 47.3582C23.061 47.4913 22.7373 47.604 22.4434 47.7576C21.0533 48.4948 19.6154 48.6194 18.2015 47.8617C17.8341 47.6268 17.5719 47.2906 17.4587 46.9094C17.1052 45.7847 17.4389 44.7402 18.1439 43.7623C18.3176 43.4795 18.4657 43.1857 18.5867 42.8833C19.0991 42.5693 19.6035 42.2433 20.1258 41.943C21.3889 41.2108 22.779 41.3439 23.5774 42.4242C23.8475 42.7895 23.7938 43.5148 23.5555 43.9364C22.932 45.0286 21.8675 45.6823 20.3681 45.684C20.1618 45.7096 19.961 45.7614 19.7723 45.8376C19.8617 46.7148 20.4614 47.1773 21.4127 47.1244C22.5348 47.0613 23.7025 46.4076 23.9766 45.6908C24.191 45.4911 24.4889 45.3222 24.6081 45.0884C25.0549 44.2026 25.3925 43.2759 25.8711 42.4038C26.1948 41.8116 26.0558 41.4702 25.4144 41.1767C25.1696 41.0584 24.9644 40.888 24.8186 40.6817C24.7842 40.607 24.7707 40.5263 24.7794 40.4463C24.788 40.3662 24.8184 40.289 24.8682 40.221C24.9278 40.1476 25.1939 40.1612 25.3508 40.1936C25.4759 40.2175 25.5792 40.3285 25.6904 40.4001C26.3855 40.8541 26.7251 40.7551 27.0468 40.093C27.2909 39.5957 27.5874 39.1187 27.9325 38.6679C28.2245 38.2839 28.6375 38.26 29.0864 38.545C29.5352 38.83 29.7576 39.3676 29.4835 39.7397C29.1902 40.0997 28.9248 40.476 28.6892 40.8661C28.5958 41.0367 28.7249 41.3081 28.7547 41.5317C28.8024 41.6238 28.852 41.7126 28.8957 41.8047C29.0327 42.0829 29.1678 42.3628 29.3028 42.641C28.9701 42.7407 28.6259 42.8093 28.2761 42.8458C27.8968 42.8458 27.6803 42.9294 27.5373 43.252C27.0389 44.3204 26.5106 45.3785 26.5086 46.5544C26.5086 47.2678 27.0349 47.5374 27.7617 47.1978C28.2622 46.964 28.7289 46.6858 29.3823 46.3223C29.2174 46.776 28.9494 47.1971 28.5939 47.5613C28.2383 47.9254 27.8023 48.2253 27.3109 48.4437C26.8668 48.6542 26.375 48.7799 25.8691 48.8123C24.9775 48.8515 24.479 48.3703 24.3539 47.6074C24.3161 47.3616 24.0818 47.1381 23.9368 46.9042L23.3708 47.3582ZM21.2618 44.0848C21.6247 43.7673 21.9568 43.4249 22.2547 43.0608C22.3759 42.8902 22.2547 42.5847 22.2408 42.3406C21.9588 42.3833 21.5517 42.3406 21.4187 42.4857C20.9594 42.982 20.5602 43.5173 20.2271 44.0831C20.102 44.2982 20.2271 44.6224 20.239 44.8972C20.5573 44.7545 20.8668 44.5978 21.1665 44.4279C21.2499 44.3767 21.23 44.2043 21.2578 44.0865L21.2618 44.0848Z" fill="#E3E3E3"/>
<path d="M73.4023 33.854L73.5612 33.8438C73.5612 33.8915 73.5612 33.9376 73.5612 33.9854L73.4023 33.854Z" fill="white"/>
<path d="M71.4219 33.6216C71.4715 33.5773 71.5232 33.5346 71.5748 33.4902C71.5748 33.5363 71.5748 33.5841 71.5847 33.6302L71.4219 33.6216Z" fill="white"/>
<path d="M21.2617 44.0848C21.2339 44.2025 21.2617 44.3749 21.1703 44.4261C20.8707 44.5961 20.5611 44.7527 20.2429 44.8955C20.231 44.6207 20.1058 44.2964 20.231 44.0814C20.564 43.5155 20.9633 42.9803 21.4225 42.4839C21.5556 42.3389 21.9627 42.3815 22.2447 42.3389C22.2566 42.5829 22.3797 42.8833 22.2586 43.0591C21.9606 43.4231 21.6285 43.7656 21.2656 44.0831L22.2943 42.5044C21.2815 42.6597 20.4832 43.5847 20.3203 44.6036L21.2617 44.0848Z" fill="#E3E3E3"/>
<path d="M18.5599 42.622C18.5047 42.6976 18.4379 42.7665 18.3613 42.8268C18.3315 42.8524 18.2977 42.8746 18.268 42.9002C18.1304 43.0271 18.0177 43.1723 17.9343 43.3302C17.9082 43.3669 17.8932 43.4085 17.8906 43.4514C17.9859 43.454 18.0797 43.4307 18.1587 43.3848C18.2538 43.3373 18.346 43.2854 18.4348 43.2295C18.6478 43.0977 18.8383 42.9408 19.0008 42.7636C19.0276 42.7376 19.0484 42.7075 19.0623 42.6749C19.0701 42.6481 19.0741 42.6206 19.0742 42.593C19.0769 42.5662 19.0721 42.5393 19.0603 42.5144C19.049 42.4936 19.0319 42.4755 19.0107 42.4615C18.98 42.4281 18.936 42.4057 18.8871 42.3988C18.8382 42.3918 18.7881 42.4008 18.7466 42.424C18.6656 42.4751 18.6013 42.5433 18.5599 42.622Z" fill="#E3E3E3"/>
<path d="M35.0382 48.3538C35.0005 48.3624 34.9687 48.3334 34.9449 48.3078L34.7463 48.091L34.6172 47.9494C34.6881 47.9474 34.7578 47.9654 34.8158 48.0006C34.8459 48.0199 34.8738 48.0416 34.8992 48.0654C34.9256 48.0883 34.9483 48.1142 34.9667 48.1422C34.9865 48.1715 34.9987 48.2041 35.0025 48.2378C35.0025 48.26 35.0025 48.2822 35.0025 48.3044C35.0025 48.3265 35.0164 48.3419 35.0382 48.3538Z" fill="white"/>
<path d="M34.6156 48.0755C34.6137 48.0868 34.6137 48.0983 34.6156 48.1096C34.6209 48.1245 34.6305 48.138 34.6434 48.1489C34.7185 48.2394 34.8258 48.3065 34.9492 48.34C34.9905 48.3472 35.0323 48.3518 35.0743 48.3537C35.0287 48.2786 34.985 48.2018 34.9413 48.1267L34.9095 48.0755C34.8927 48.05 34.8838 48.0212 34.8837 47.9919C34.86 47.9835 34.8384 47.9714 34.8201 47.956C34.7859 47.9385 34.7468 47.9291 34.7069 47.9287C34.6791 47.9287 34.6196 47.9287 34.6116 47.9543C34.6086 47.9724 34.6086 47.9908 34.6116 48.0089L34.6156 48.0755Z" fill="#E3E3E3"/>
</g>
<defs>
<clipPath id="clip0_2576_14250">
<rect width="88.252" height="65" fill="white" transform="translate(0 0.5)"/>
</clipPath>
</defs>
</svg>
