<svg width="20" height="20" viewBox="0 0 20 20" fill="none" xmlns="http://www.w3.org/2000/svg">
<path d="M10.625 9.37527V13.7503C10.625 13.916 10.5592 14.075 10.442 14.1922C10.3248 14.3094 10.1658 14.3753 10 14.3753C9.83428 14.3753 9.67531 14.3094 9.5581 14.1922C9.44089 14.075 9.37504 13.916 9.37504 13.7503V9.37527C9.37504 9.20951 9.44089 9.05054 9.5581 8.93333C9.67531 8.81612 9.83428 8.75027 10 8.75027C10.1658 8.75027 10.3248 8.81612 10.442 8.93333C10.5592 9.05054 10.625 9.20951 10.625 9.37527ZM13.5032 9.31277L13.0657 13.6878C13.057 13.7697 13.0647 13.8525 13.0881 13.9314C13.1116 14.0104 13.1504 14.0839 13.2024 14.1478C13.2544 14.2117 13.3185 14.2647 13.391 14.3037C13.4636 14.3428 13.5431 14.3671 13.625 14.3753C13.6461 14.3764 13.6672 14.3764 13.6883 14.3753C13.8431 14.3751 13.9924 14.3174 14.1071 14.2135C14.2218 14.1096 14.2939 13.9668 14.3094 13.8128L14.7469 9.43777C14.7635 9.27284 14.7139 9.10808 14.609 8.97974C14.5041 8.85139 14.3525 8.76997 14.1875 8.7534C14.0226 8.73682 13.8578 8.78644 13.7295 8.89135C13.6012 8.99625 13.5197 9.14784 13.5032 9.31277ZM6.49692 9.31277C6.48034 9.14784 6.39892 8.99625 6.27058 8.89135C6.14223 8.78644 5.97747 8.73682 5.81254 8.7534C5.64761 8.76997 5.49602 8.85139 5.39112 8.97974C5.28621 9.10808 5.23659 9.27284 5.25317 9.43777L5.69067 13.8128C5.70621 13.9675 5.77886 14.1108 5.89443 14.2148C6.01 14.3189 6.16019 14.3761 6.31567 14.3753C6.33674 14.3764 6.35787 14.3764 6.37895 14.3753C6.46061 14.3671 6.53986 14.3429 6.61217 14.304C6.68448 14.2652 6.74843 14.2125 6.80038 14.1489C6.85232 14.0854 6.89124 14.0122 6.9149 13.9336C6.93857 13.855 6.94653 13.7726 6.93832 13.6909L6.49692 9.31277ZM18.7446 6.95809L17.5672 15.7909C17.5262 16.0907 17.3781 16.3655 17.1505 16.5648C16.9228 16.764 16.6307 16.8743 16.3282 16.8753H3.67192C3.36935 16.8743 3.07732 16.764 2.84963 16.5648C2.62194 16.3655 2.47392 16.0907 2.43285 15.7909L1.25551 6.95809C1.24371 6.8698 1.25091 6.78001 1.27665 6.69473C1.30238 6.60945 1.34604 6.53066 1.4047 6.46363C1.46337 6.39661 1.53569 6.3429 1.6168 6.3061C1.69792 6.2693 1.78597 6.25027 1.87504 6.25027H5.34145L9.53129 1.46355C9.58994 1.39705 9.66207 1.34379 9.74289 1.3073C9.82371 1.27082 9.91137 1.25195 10 1.25195C10.0887 1.25195 10.1764 1.27082 10.2572 1.3073C10.338 1.34379 10.4101 1.39705 10.4688 1.46355L14.6586 6.25027H18.125C18.2141 6.25027 18.3022 6.2693 18.3833 6.3061C18.4644 6.3429 18.5367 6.39661 18.5954 6.46363C18.654 6.53066 18.6977 6.60945 18.7234 6.69473C18.7492 6.78001 18.7564 6.8698 18.7446 6.95809ZM7.00238 6.25027H12.9977L10 2.82449L7.00238 6.25027ZM17.411 7.50027H2.5891L3.67192 15.6253H16.3282L17.411 7.50027Z" fill="#666666"/>
</svg>
